<svg width="292" height="56" viewBox="0 0 292 56" fill="none" xmlns="http://www.w3.org/2000/svg">
<path fill-rule="evenodd" clip-rule="evenodd" d="M27.6288 4.88381L10.0389 13.9508L27.6288 23.0177L45.2187 13.9508L27.6288 4.88381ZM28.9046 0.366784C28.1046 -0.045581 27.153 -0.0455807 26.353 0.366784L4.7475 11.5036C2.75242 12.532 2.75242 15.3695 4.7475 16.3979L26.353 27.5347C27.153 27.9471 28.1046 27.9471 28.9046 27.5347L50.5102 16.3979C52.5052 15.3695 52.5052 12.532 50.5102 11.5036L28.9046 0.366784Z" fill="#131313"/>
<path d="M2.53362 19.8973C2.46007 19.8929 2.38551 19.8907 2.3101 19.8907C1.03427 19.8907 0 20.5365 0 21.3333L7.86389e-07 39.3847C8.21414e-07 40.1815 1.03427 40.8274 2.31011 40.8274C3.58594 40.8274 4.62021 40.1815 4.62021 39.3847V25.7947L26.5649 37.009C26.615 37.0346 26.6656 37.058 26.7166 37.0796C27.3419 37.3803 28.0934 37.397 28.7549 37.0589L50.6375 25.8764V39.1069L27.7087 50.824L10.4082 41.9693C9.52557 41.5182 8.33727 42.0673 7.7541 43.1958C7.1709 44.324 7.41368 45.6044 8.29635 46.0554L26.9973 55.6257C27.4799 55.8722 28.0539 55.8198 28.5705 55.5374C28.6379 55.5106 28.7046 55.4802 28.7704 55.4467L53.9857 42.5609C54.1311 42.4867 54.2655 42.399 54.3873 42.3004C54.9177 42.011 55.2578 41.5654 55.2578 41.0653V21.4812C55.2578 20.6089 54.2235 19.9019 52.9475 19.9019C52.3069 19.9019 51.7272 20.0802 51.3084 20.3682L27.7087 32.4283L3.66989 20.1438C3.30646 19.9581 2.91569 19.8799 2.53362 19.8973Z" fill="#42D5E9"/>
<path d="M91.254 17.0888V38.9565H86.6808V24.7738L80.1053 34.9267H79.5712L72.9957 24.805V38.9565H68.3895V17.0888H73.1292L79.8384 27.4291L86.514 17.0888H91.254Z" fill="#42D5E9"/>
<path d="M115.267 36.1136C112.909 38.3006 110.038 39.3939 106.656 39.3939C103.273 39.3939 100.403 38.3006 98.044 36.1136C95.7074 33.9062 94.5394 31.209 94.5394 28.0227C94.5394 24.8362 95.7074 22.1496 98.044 19.9628C100.403 17.7553 103.273 16.6514 106.656 16.6514C110.038 16.6514 112.909 17.7553 115.267 19.9628C117.626 22.1496 118.806 24.8362 118.806 28.0227C118.806 31.209 117.626 33.9062 115.267 36.1136ZM101.282 33.1773C102.728 34.51 104.519 35.1765 106.656 35.1765C108.792 35.1765 110.584 34.51 112.03 33.1773C113.476 31.8235 114.2 30.1053 114.2 28.0227C114.2 25.94 113.476 24.2219 112.03 22.8681C110.584 21.5144 108.792 20.8376 106.656 20.8376C104.519 20.8376 102.728 21.5144 101.282 22.8681C99.8355 24.2219 99.1123 25.94 99.1123 28.0227C99.1123 30.1053 99.8355 31.8235 101.282 33.1773Z" fill="#42D5E9"/>
<path d="M140.301 38.9565H134.994L126.649 28.71V38.9565H122.043V17.0888H126.649V26.7419L134.66 17.0888H139.967L131.323 27.7103L140.301 38.9565Z" fill="#42D5E9"/>
<path d="M156.097 38.9565V25.6172L146.084 38.9565H142.579V17.0888H147.185V30.4594L157.199 17.0888H160.704V38.9565H156.097Z" fill="#42D5E9"/>
<path d="M180.492 17.0888V21.2124H174.184V38.9565H169.578V21.2124H163.302V17.0888H180.492Z" fill="#42D5E9"/>
<path fill-rule="evenodd" clip-rule="evenodd" d="M190.994 16.7391C191.332 16.7391 191.606 17.0116 191.606 17.3478V38.6522C191.606 38.9885 191.332 39.2609 190.994 39.2609C190.655 39.2609 190.382 38.9885 190.382 38.6522V17.3478C190.382 17.0116 190.655 16.7391 190.994 16.7391Z" fill="black"/>
<path d="M223.246 17.1813V39.2895H218.877V24.9508L212.594 35.2155H212.084L205.802 24.9824V39.2895H201.4V17.1813H205.929L212.339 27.6354L218.718 17.1813H223.246Z" fill="black"/>
<path d="M246.19 36.4155C243.936 38.6263 241.194 39.7317 237.962 39.7317C234.73 39.7317 231.988 38.6263 229.734 36.4155C227.502 34.1837 226.385 31.4568 226.385 28.2354C226.385 25.014 227.502 22.2978 229.734 20.087C231.988 17.8551 234.73 16.7391 237.962 16.7391C241.194 16.7391 243.936 17.8551 246.19 20.087C248.444 22.2978 249.571 25.014 249.571 28.2354C249.571 31.4568 248.444 34.1837 246.19 36.4155ZM232.827 33.4466C234.209 34.7943 235.921 35.4681 237.962 35.4681C240.003 35.4681 241.714 34.7943 243.096 33.4466C244.479 32.078 245.17 30.341 245.17 28.2354C245.17 26.1299 244.479 24.3928 243.096 23.0242C241.714 21.6556 240.003 20.9713 237.962 20.9713C235.921 20.9713 234.209 21.6556 232.827 23.0242C231.446 24.3928 230.754 26.1299 230.754 28.2354C230.754 30.341 231.446 32.078 232.827 33.4466Z" fill="black"/>
<path d="M269.343 35.1205H271.735V43.5217H267.334V39.2895H252.664V17.1813H257.065V35.1205H264.942V17.1813H269.343V35.1205Z" fill="black"/>
<path d="M287.599 39.2895V25.8035L278.031 39.2895H274.683V17.1813H279.084V30.699L288.651 17.1813H292V39.2895H287.599Z" fill="black"/>
</svg>
