<svg width="38" height="38" viewBox="0 0 38 38" fill="none" xmlns="http://www.w3.org/2000/svg">
<path d="M19 22.8C19.3758 22.8 19.7431 22.6886 20.0556 22.4798C20.368 22.271 20.6116 21.9743 20.7554 21.6271C20.8992 21.2799 20.9368 20.8979 20.8635 20.5293C20.7902 20.1608 20.6092 19.8222 20.3435 19.5565C20.0778 19.2908 19.7392 19.1098 19.3707 19.0365C19.0021 18.9632 18.6201 19.0008 18.2729 19.1446C17.9257 19.2884 17.629 19.532 17.4202 19.8444C17.2114 20.1569 17.1 20.5242 17.1 20.9C17.1 21.4039 17.3002 21.8872 17.6565 22.2435C18.0128 22.5998 18.4961 22.8 19 22.8ZM28.5 22.8C28.8758 22.8 29.2431 22.6886 29.5556 22.4798C29.868 22.271 30.1116 21.9743 30.2554 21.6271C30.3992 21.2799 30.4368 20.8979 30.3635 20.5293C30.2902 20.1608 30.1092 19.8222 29.8435 19.5565C29.5778 19.2908 29.2392 19.1098 28.8707 19.0365C28.5021 18.9632 28.1201 19.0008 27.7729 19.1446C27.4257 19.2884 27.129 19.532 26.9202 19.8444C26.7114 20.1569 26.6 20.5242 26.6 20.9C26.6 21.4039 26.8002 21.8872 27.1565 22.2435C27.5128 22.5998 27.9961 22.8 28.5 22.8ZM19 30.4C19.3758 30.4 19.7431 30.2886 20.0556 30.0798C20.368 29.871 20.6116 29.5743 20.7554 29.2271C20.8992 28.8799 20.9368 28.4979 20.8635 28.1293C20.7902 27.7608 20.6092 27.4222 20.3435 27.1565C20.0778 26.8908 19.7392 26.7098 19.3707 26.6365C19.0021 26.5632 18.6201 26.6008 18.2729 26.7446C17.9257 26.8884 17.629 27.132 17.4202 27.4444C17.2114 27.7569 17.1 28.1242 17.1 28.5C17.1 29.0039 17.3002 29.4872 17.6565 29.8435C18.0128 30.1998 18.4961 30.4 19 30.4ZM28.5 30.4C28.8758 30.4 29.2431 30.2886 29.5556 30.0798C29.868 29.871 30.1116 29.5743 30.2554 29.2271C30.3992 28.8799 30.4368 28.4979 30.3635 28.1293C30.2902 27.7608 30.1092 27.4222 29.8435 27.1565C29.5778 26.8908 29.2392 26.7098 28.8707 26.6365C28.5021 26.5632 28.1201 26.6008 27.7729 26.7446C27.4257 26.8884 27.129 27.132 26.9202 27.4444C26.7114 27.7569 26.6 28.1242 26.6 28.5C26.6 29.0039 26.8002 29.4872 27.1565 29.8435C27.5128 30.1998 27.9961 30.4 28.5 30.4ZM9.5 22.8C9.87578 22.8 10.2431 22.6886 10.5556 22.4798C10.868 22.271 11.1116 21.9743 11.2554 21.6271C11.3992 21.2799 11.4368 20.8979 11.3635 20.5293C11.2902 20.1608 11.1092 19.8222 10.8435 19.5565C10.5778 19.2908 10.2392 19.1098 9.87067 19.0365C9.50211 18.9632 9.12008 19.0008 8.7729 19.1446C8.42572 19.2884 8.12898 19.532 7.92021 19.8444C7.71143 20.1569 7.6 20.5242 7.6 20.9C7.6 21.4039 7.80018 21.8872 8.1565 22.2435C8.51282 22.5998 8.99609 22.8 9.5 22.8ZM32.3 3.8H30.4V1.9C30.4 1.39609 30.1998 0.912816 29.8435 0.556497C29.4872 0.200178 29.0039 0 28.5 0C27.9961 0 27.5128 0.200178 27.1565 0.556497C26.8002 0.912816 26.6 1.39609 26.6 1.9V3.8H11.4V1.9C11.4 1.39609 11.1998 0.912816 10.8435 0.556497C10.4872 0.200178 10.0039 0 9.5 0C8.99609 0 8.51282 0.200178 8.1565 0.556497C7.80018 0.912816 7.6 1.39609 7.6 1.9V3.8H5.7C4.18827 3.8 2.73845 4.40053 1.66949 5.46949C0.600534 6.53845 0 7.98827 0 9.5V32.3C0 33.8117 0.600534 35.2616 1.66949 36.3305C2.73845 37.3995 4.18827 38 5.7 38H32.3C33.8117 38 35.2616 37.3995 36.3305 36.3305C37.3995 35.2616 38 33.8117 38 32.3V9.5C38 7.98827 37.3995 6.53845 36.3305 5.46949C35.2616 4.40053 33.8117 3.8 32.3 3.8ZM34.2 32.3C34.2 32.8039 33.9998 33.2872 33.6435 33.6435C33.2872 33.9998 32.8039 34.2 32.3 34.2H5.7C5.19609 34.2 4.71282 33.9998 4.3565 33.6435C4.00018 33.2872 3.8 32.8039 3.8 32.3V15.2H34.2V32.3ZM34.2 11.4H3.8V9.5C3.8 8.99609 4.00018 8.51282 4.3565 8.1565C4.71282 7.80018 5.19609 7.6 5.7 7.6H32.3C32.8039 7.6 33.2872 7.80018 33.6435 8.1565C33.9998 8.51282 34.2 8.99609 34.2 9.5V11.4ZM9.5 30.4C9.87578 30.4 10.2431 30.2886 10.5556 30.0798C10.868 29.871 11.1116 29.5743 11.2554 29.2271C11.3992 28.8799 11.4368 28.4979 11.3635 28.1293C11.2902 27.7608 11.1092 27.4222 10.8435 27.1565C10.5778 26.8908 10.2392 26.7098 9.87067 26.6365C9.50211 26.5632 9.12008 26.6008 8.7729 26.7446C8.42572 26.8884 8.12898 27.132 7.92021 27.4444C7.71143 27.7569 7.6 28.1242 7.6 28.5C7.6 29.0039 7.80018 29.4872 8.1565 29.8435C8.51282 30.1998 8.99609 30.4 9.5 30.4Z" fill="#42D5E9"/>
</svg>
